<svg width="243" height="120" viewBox="0 0 243 120" fill="none" xmlns="http://www.w3.org/2000/svg">
<path d="M5.25 48V13H18.9C21.9667 13 24.5833 13.4833 26.75 14.45C28.9167 15.4167 30.5833 16.8167 31.75 18.65C32.9167 20.4833 33.5 22.6667 33.5 25.2C33.5 27.7333 32.9167 29.9167 31.75 31.75C30.5833 33.55 28.9167 34.95 26.75 35.95C24.5833 36.9167 21.9667 37.4 18.9 37.4H8L10.25 35.05V48H5.25ZM10.25 35.55L8 33.05H18.75C21.95 33.05 24.3667 32.3667 26 31C27.6667 29.6333 28.5 27.7 28.5 25.2C28.5 22.7 27.6667 20.7667 26 19.4C24.3667 18.0333 21.95 17.35 18.75 17.35H8L10.25 14.85V35.55ZM40.8457 48V13H45.8457V43.65H64.7957V48H40.8457ZM65.2332 48L81.0832 13H86.0332L101.933 48H96.6832L82.5332 15.8H84.5332L70.3832 48H65.2332ZM71.9832 39.25L73.3332 35.25H93.0332L94.4832 39.25H71.9832ZM107.154 48V13H111.254L134.404 41.75H132.254V13H137.254V48H133.154L110.004 19.25H112.154V48H107.154ZM154.68 48V17.35H142.68V13H171.63V17.35H159.63V48H154.68ZM181.626 28.1H199.626V32.35H181.626V28.1ZM182.076 43.65H202.476V48H177.076V13H201.776V17.35H182.076V43.65ZM210.572 48V13H215.572V43.65H234.522V48H210.572Z" fill="white"/>
<path d="M111.15 103V68H126.3C129.433 68 132.133 68.5167 134.4 69.55C136.667 70.55 138.417 72 139.65 73.9C140.883 75.8 141.5 78.0667 141.5 80.7C141.5 83.3 140.883 85.55 139.65 87.45C138.417 89.35 136.667 90.8167 134.4 91.85C132.133 92.85 129.433 93.35 126.3 93.35H115.65L119.25 89.7V103H111.15ZM119.25 90.6L115.65 86.75H125.85C128.35 86.75 130.217 86.2167 131.45 85.15C132.683 84.0833 133.3 82.6 133.3 80.7C133.3 78.7667 132.683 77.2667 131.45 76.2C130.217 75.1333 128.35 74.6 125.85 74.6H115.65L119.25 70.75V90.6ZM147.283 103V68H162.433C165.566 68 168.266 68.5167 170.533 69.55C172.799 70.55 174.549 72 175.783 73.9C177.016 75.8 177.633 78.0667 177.633 80.7C177.633 83.3 177.016 85.55 175.783 87.45C174.549 89.3167 172.799 90.75 170.533 91.75C168.266 92.75 165.566 93.25 162.433 93.25H151.783L155.383 89.7V103H147.283ZM169.533 103L160.783 90.3H169.433L178.283 103H169.533ZM155.383 90.6L151.783 86.8H161.983C164.483 86.8 166.349 86.2667 167.583 85.2C168.816 84.1 169.433 82.6 169.433 80.7C169.433 78.7667 168.816 77.2667 167.583 76.2C166.349 75.1333 164.483 74.6 161.983 74.6H151.783L155.383 70.75V90.6Z" fill="white"/>
<g clip-path="url(#clip0_14_1209)">
<path d="M229.838 90.0458C229.946 89.2333 230 88.3938 230 87.5C230 86.6333 229.946 85.7667 229.81 84.9542L235.308 80.675C235.796 80.2958 235.931 79.5646 235.633 79.0229L230.433 70.0312C230.108 69.4354 229.431 69.2458 228.835 69.4354L222.362 72.0354C221.008 71.0062 219.573 70.1396 217.975 69.4896L217 62.6104C216.892 61.9604 216.35 61.5 215.7 61.5H205.3C204.65 61.5 204.135 61.9604 204.027 62.6104L203.052 69.4896C201.454 70.1396 199.992 71.0333 198.665 72.0354L192.192 69.4354C191.596 69.2187 190.919 69.4354 190.594 70.0312L185.421 79.0229C185.096 79.5917 185.204 80.2958 185.746 80.675L191.244 84.9542C191.108 85.7667 191 86.6604 191 87.5C191 88.3396 191.054 89.2333 191.19 90.0458L185.692 94.325C185.204 94.7042 185.069 95.4354 185.367 95.9771L190.567 104.969C190.892 105.565 191.569 105.754 192.165 105.565L198.638 102.965C199.992 103.994 201.427 104.86 203.025 105.51L204 112.39C204.135 113.04 204.65 113.5 205.3 113.5H215.7C216.35 113.5 216.892 113.04 216.973 112.39L217.948 105.51C219.546 104.86 221.008 103.994 222.335 102.965L228.808 105.565C229.404 105.781 230.081 105.565 230.406 104.969L235.606 95.9771C235.931 95.3812 235.796 94.7042 235.281 94.325L229.838 90.0458ZM210.5 97.25C205.138 97.25 200.75 92.8625 200.75 87.5C200.75 82.1375 205.138 77.75 210.5 77.75C215.863 77.75 220.25 82.1375 220.25 87.5C220.25 92.8625 215.863 97.25 210.5 97.25Z" fill="#006437"/>
</g>
<defs>
<clipPath id="clip0_14_1209">
<rect width="65" height="65" fill="white" transform="translate(178 55)"/>
</clipPath>
</defs>
</svg>
